<?xml version="1.0" standalone="no"?>
<!DOCTYPE svg PUBLIC "-//W3C//DTD SVG 20010904//EN"
 "http://www.w3.org/TR/2001/REC-SVG-20010904/DTD/svg10.dtd">
<svg version="1.0" xmlns="http://www.w3.org/2000/svg"
 width="261.000000pt" height="261.000000pt" viewBox="0 0 261.000000 261.000000"
 preserveAspectRatio="xMidYMid meet">
<metadata>
Created by potrace 1.11, written by Peter Selinger 2001-2013
</metadata>
<g transform="translate(0.000000,261.000000) scale(0.100000,-0.100000)"
fill="#000000" stroke="none">
<path d="M1176 2471 c-9 -15 -123 -236 -261 -506 -81 -159 -196 -384 -255
-500 -59 -115 -164 -320 -232 -455 -69 -135 -194 -378 -277 -542 -135 -264
-150 -298 -136 -311 23 -24 276 -23 303 1 11 9 97 170 192 357 95 187 214 421
265 520 51 99 157 306 235 460 79 154 192 377 253 495 247 483 243 474 210
484 -26 7 -292 5 -297 -3z"/>
<path d="M2297 2467 c-16 -13 -58 -94 -592 -1142 -131 -257 -176 -345 -466
-912 -102 -200 -121 -244 -110 -256 16 -20 278 -24 302 -5 9 7 73 123 141 258
131 257 302 591 483 945 97 190 287 562 482 944 40 80 73 150 73 157 0 20 -21
23 -163 23 -90 0 -140 -4 -150 -12z"/>
</g>
</svg>
