<svg xmlns="http://www.w3.org/2000/svg" xmlns:xlink="http://www.w3.org/1999/xlink" x="0px" y="0px" width="32px" height="32px" viewBox="0 0 32 32" xml:space="preserve">
<g>
	<polygon fill="#FFFFFF" points="7.8,14.6 7.8,17.4 9.9,16 	"/>
	<polygon fill="#FFFFFF" points="15.1,12.5 15.1,8.5 8.5,13 11.5,15 	"/>
	<polygon fill="#FFFFFF" points="23.5,13 16.9,8.5 16.9,12.5 20.5,15 	"/>
	<polygon fill="#FFFFFF" points="8.5,19 15.1,23.5 15.1,19.5 11.5,17 	"/>
	<polygon fill="#FFFFFF" points="16.9,19.5 16.9,23.5 23.5,19 20.5,17 	"/>
	<polygon fill="#FFFFFF" points="16,14 13,16 16,18 19,16 	"/>
	<path fill="#FFFFFF" d="M16,0C7.2,0,0,7.2,0,16c0,8.8,7.2,16,16,16c8.8,0,16-7.2,16-16C32,7.2,24.8,0,16,0z M25.9,19
		c0,0,0,0.1,0,0.1c0,0,0,0,0,0c0,0,0,0,0,0.1c0,0,0,0,0,0c0,0,0,0,0,0.1c0,0,0,0,0,0c0,0,0,0,0,0.1c0,0,0,0,0,0c0,0,0,0,0,0.1
		c0,0,0,0,0,0c0,0,0,0,0,0c0,0,0,0,0,0c0,0,0,0,0,0c0,0,0,0,0,0c0,0,0,0,0,0l-9,6c-0.1,0.1-0.3,0.1-0.5,0.1c-0.2,0-0.3,0-0.5-0.1
		l-9-6c0,0,0,0,0,0c0,0,0,0,0,0c0,0,0,0,0,0c0,0,0,0,0,0c0,0,0,0,0,0c0,0,0,0,0,0c0,0,0,0,0-0.1c0,0,0,0,0,0c0,0,0,0,0-0.1
		c0,0,0,0,0,0c0,0,0,0,0-0.1c0,0,0,0,0,0c0,0,0,0,0-0.1c0,0,0,0,0,0c0,0,0-0.1,0-0.1v-6c0,0,0-0.1,0-0.1c0,0,0,0,0,0c0,0,0,0,0-0.1
		c0,0,0,0,0,0c0,0,0,0,0-0.1c0,0,0,0,0,0c0,0,0,0,0-0.1c0,0,0,0,0,0c0,0,0,0,0-0.1c0,0,0,0,0,0c0,0,0,0,0,0c0,0,0,0,0,0c0,0,0,0,0,0
		c0,0,0,0,0,0c0,0,0,0,0,0l9-6c0.3-0.2,0.7-0.2,0.9,0l9,6c0,0,0,0,0,0c0,0,0,0,0,0c0,0,0,0,0,0c0,0,0,0,0,0c0,0,0,0,0,0c0,0,0,0,0,0
		c0,0,0,0,0,0.1c0,0,0,0,0,0c0,0,0,0,0,0.1c0,0,0,0,0,0c0,0,0,0,0,0.1c0,0,0,0,0,0c0,0,0,0,0,0.1c0,0,0,0,0,0c0,0,0,0.1,0,0.1V19z"
		/>
	<polygon fill="#FFFFFF" points="24.2,17.4 24.2,14.6 22.1,16 	"/>
</g>
</svg>
