<svg xmlns="http://www.w3.org/2000/svg" xmlns:xlink="http://www.w3.org/1999/xlink" x="0px" y="0px"
	 width="100%" height="16px" viewBox="0 0 17.8 16" xml:space="preserve" preserveAspectRatio="xMidYMid meet">
<g>
	<path fill="#A3A3A3" d="M0.3,16C0,16,0,15.8,0,15.7L7.9,0.2C8,0.1,8.1,0,8.2,0h1.7c0.2,0,0.3,0.1,0.2,0.3L2.2,15.8
		C2.2,15.9,2.1,16,1.9,16H0.3z"/>
</g>
<g>
	<path fill="#A3A3A3" d="M7.9,16c-0.2,0-0.3-0.2-0.2-0.3l7.9-15.5C15.6,0.1,15.7,0,15.9,0h1.7c0.2,0,0.3,0.1,0.2,0.3L9.9,15.8
		C9.8,15.9,9.7,16,9.6,16H7.9z"/>
</g>
</svg>